<mxfile host="app.diagrams.net" modified="2023-11-13T10:25:30.857Z" agent="Mozilla/5.0 (Windows NT 10.0; Win64; x64; rv:98.0) Gecko/20100101 Firefox/98.0" version="22.1.0" etag="zDknAAc-JkWVIAMS79rX" type="github">
  <diagram name="Seite-1" id="14qMMcm4goMJ-WoDYqR_">
    <mxGraphModel>
      <root>
        <mxCell id="0" />
        <mxCell id="1" parent="0" />
      </root>
    </mxGraphModel>
  </diagram>
</mxfile>
